<?xml version="1.0" standalone="no"?>
<!DOCTYPE svg PUBLIC "-//W3C//DTD SVG 1.1//EN" "http://www.w3.org/Graphics/SVG/1.1/DTD/svg11.dtd" >
<svg xmlns="http://www.w3.org/2000/svg" xmlns:xlink="http://www.w3.org/1999/xlink" version="1.1" viewBox="-10 0 1509 1300">
   <path fill="#7EBAE4"
d="M1229.37 213.678c155.63 228.818 232.496 486.934 203.752 784.081c-0.116211 1.2998 -0.793945 2.43945 -1.79297 3.16895c-102.703 76.0635 -219.64 135.613 -344.677 173.873c-0.404297 0.124023 -0.831055 0.195312 -1.27637 0.195312
c-1.4668 0 -2.7666 -0.724609 -3.55859 -1.83594c-26.1484 -36.2725 -49.6396 -74.4375 -70.3457 -114.41c-0.30957 -0.601562 -0.489258 -1.28711 -0.489258 -2.01074c0 -1.87598 1.17773 -3.47852 2.83301 -4.1084c37.3027 -14.0254 73.5527 -31.3135 107.555 -51.1641
c1.29102 -0.771484 2.15527 -2.17773 2.15527 -3.78906c0 -1.44727 -0.698242 -2.73242 -1.77539 -3.53809c-7.27734 -5.41113 -14.5029 -11.0947 -21.4033 -16.7812c-0.731445 -0.597656 -1.67188 -0.955078 -2.68945 -0.955078
c-0.651367 0 -1.26758 0.147461 -1.81934 0.40918c-222.867 102.931 -467.042 102.931 -692.578 0c-0.53125 -0.238281 -1.12598 -0.371094 -1.74609 -0.371094c-1.02734 0 -1.9707 0.364258 -2.70703 0.970703c-6.89746 5.68652 -14.126 11.3164 -21.3496 16.7275
c-1.0625 0.807617 -1.75 2.0791 -1.75 3.51562c0 1.62305 0.87793 3.04297 2.18359 3.81152c34.0938 19.6924 70.3125 36.9873 107.503 51.2178c1.66992 0.611328 2.85742 2.21777 2.85742 4.09766c0 0.708008 -0.168945 1.37598 -0.46875 1.96777
c-20.3721 40.2119 -43.9053 78.4238 -70.3994 114.474c-0.8125 1.07812 -2.10156 1.77148 -3.55469 1.77148c-0.445312 0 -0.875 -0.0654297 -1.28027 -0.1875c-124.805 -38.3867 -241.536 -97.9238 -344.121 -173.88
c-0.983398 -0.767578 -1.65332 -1.91699 -1.79297 -3.22266c-24.0098 -257.025 24.9326 -517.273 203.595 -784.081c0.435547 -0.704102 1.07715 -1.25781 1.84668 -1.58398c87.4385 -40.1572 182.848 -70.1299 280.519 -86.9697
c0.226562 -0.0351562 0.451172 -0.0585938 0.686523 -0.0585938c1.62891 0 3.05371 0.880859 3.82324 2.19141c13.04 23.0684 24.9736 47.1719 35.4727 71.7188c51.7188 -7.85059 102.597 -11.9219 156.492 -11.9219c53.8965 0 106.85 4.07129 158.568 11.9219
c10.4238 -24.4717 22.1748 -48.583 34.9219 -71.7188c0.724609 -1.31641 2.11816 -2.2041 3.72559 -2.2041c0.266602 0 0.52832 0.0244141 0.78125 0.0712891c97.6562 16.874 193.062 46.8428 280.515 86.9668c0.775391 0.318359 1.4082 0.900391 1.79004 1.64062z
M521.463 841.203c68.9844 0 123.852 -62.3135 123.852 -138.846c1.08496 -75.9824 -54.3242 -138.842 -123.852 -138.842c-68.9883 0 -123.853 62.3184 -123.853 138.846c0 76.5283 55.9502 138.842 123.853 138.842zM979.385 841.203
c69.5322 0 123.854 -62.3135 123.854 -138.846c1.08496 -75.9824 -54.3213 -138.842 -123.854 -138.842c-68.9854 0 -123.851 62.3184 -123.851 138.846c0 76.5283 55.9502 138.842 123.851 138.842z" />
</svg>
