<?xml version="1.0" standalone="no"?>
<!DOCTYPE svg PUBLIC "-//W3C//DTD SVG 1.1//EN" "http://www.w3.org/Graphics/SVG/1.1/DTD/svg11.dtd" >
<svg xmlns="http://www.w3.org/2000/svg" xmlns:xlink="http://www.w3.org/1999/xlink" version="1.1" viewBox="-10 0 522 512">
   <path fill="#7EBAE4"
d="M410 85h-73v-10q0 -15 10.5 -26t25.5 -11t26 11t11 26v10zM427 85v-10q0 -22 -16 -38t-38 -16t-37.5 16t-15.5 38v10q-9 0 -15 6.5t-6 15.5v85q0 9 6 15t15 6h107q9 0 15 -6t6 -15v-85q0 -9 -6 -15.5t-15 -6.5zM427 331q-40 0 -76 -12q-13 -4 -22 5l-47 47
q-45 -23 -81.5 -59.5t-59.5 -81.5l47 -47q9 -9 5 -22q-12 -36 -12 -76q0 -9 -6 -15t-15 -6h-75q-9 0 -15 6t-6 15q0 72 27.5 139t78.5 118t118 78.5t139 27.5q9 0 15 -6t6 -15v-75q0 -9 -6 -15t-15 -6z" />
</svg>
