<?xml version="1.0" standalone="no"?>
<!DOCTYPE svg PUBLIC "-//W3C//DTD SVG 1.1//EN" "http://www.w3.org/Graphics/SVG/1.1/DTD/svg11.dtd" >
<svg xmlns="http://www.w3.org/2000/svg" xmlns:xlink="http://www.w3.org/1999/xlink" version="1.1" viewBox="-10 0 522 512">
   <path fill="#7EBAE4"
d="M85 64h342q17 0 29.5 12.5t12.5 30.5v298q0 18 -12.5 30.5t-29.5 12.5h-342q-17 0 -29.5 -12.5t-12.5 -30.5v-298q0 -18 12.5 -30.5t29.5 -12.5zM223 118q-8 0 -13.5 6t-5.5 14v66q0 8 5.5 13.5t13.5 5.5h66q8 0 13.5 -5.5t5.5 -13.5v-66q0 -8 -5.5 -14t-13.5 -6h-66z
M236 144h40q2 0 4 2t2 5v39q0 3 -2 5t-4 2h-40q-2 0 -4 -2t-2 -5v-39q0 -3 2 -5t4 -2zM105 118q-8 0 -14 6t-6 14v66q0 8 6 13.5t14 5.5h46v-26h-33q-3 0 -4.5 -2t-1.5 -5v-39q0 -3 1.5 -5t4.5 -2h39q3 0 5 2t2 5v79q0 2 -2 4t-5 2h-72v27h86q8 0 13.5 -6t5.5 -14v-105
q0 -8 -5.5 -14t-13.5 -6h-66zM341 118q-8 0 -13.5 6t-5.5 14v66q0 8 5.5 13.5t13.5 5.5h46v-26h-32q-3 0 -5 -2t-2 -5v-39q0 -3 2 -5t5 -2h39q3 0 4.5 2t1.5 5v79q0 2 -1.5 4t-4.5 2h-72v27h85q8 0 14 -6t6 -14v-105q0 -8 -6 -14t-14 -6h-66zM210 289q-8 0 -14 5.5t-6 13.5
v66q0 8 6 14t14 6h66q8 0 13.5 -6t5.5 -14v-66q0 -8 -5.5 -13.5t-13.5 -5.5h-66zM223 315h40q3 0 4.5 2t1.5 5v39q0 3 -2 5t-4 2h-40q-3 0 -4.5 -2t-1.5 -5v-39q0 -3 1.5 -5t4.5 -2zM105 289q-8 0 -14 5.5t-6 13.5v66q0 8 6 14t14 6h72v-26h-59q-3 0 -4.5 -2t-1.5 -5v-39
q0 -3 1.5 -5t4.5 -2h59v-26h-72zM328 289q-8 0 -14 5.5t-6 13.5v86h27v-72q0 -3 2 -5t4 -2h14v79h26v-79h19v79h27v-105h-99z" />
</svg>
