<?xml version="1.0" standalone="no"?>
<!DOCTYPE svg PUBLIC "-//W3C//DTD SVG 1.1//EN" "http://www.w3.org/Graphics/SVG/1.1/DTD/svg11.dtd" >
<svg xmlns="http://www.w3.org/2000/svg" xmlns:xlink="http://www.w3.org/1999/xlink" version="1.1" viewBox="-10 0 1183 1300">
   <path fill="#7EBAE4"
d="M1162.5 650c0 321.094 -260.625 581.25 -582.188 581.25c-266.719 0 -491.25 -178.828 -560.156 -422.812l223.125 92.1094c15 75.2344 81.7969 132.188 161.484 132.188c91.875 0 168.516 -75.9375 164.531 -172.266l198.047 -141.094
c122.109 3.04688 224.531 -95.8594 224.531 -219.141c0 -120.938 -98.4375 -219.141 -219.609 -219.141s-219.609 98.4375 -219.609 219.141v2.8125l-138.75 200.859c-36.3281 -2.10938 -71.9531 7.96875 -101.953 28.3594l-311.953 -128.906
c23.9062 -299.297 274.453 -534.609 580.312 -534.609c321.562 0 582.188 260.156 582.188 581.25zM364.922 950.703c46.4062 19.2188 99.6094 -2.57812 119.062 -49.2188c19.4531 -46.4062 -2.57812 -99.6094 -48.9844 -118.828l-73.8281 -30.4688
c28.5938 -10.7812 60.9375 -11.25 91.1719 1.40625c30.4688 12.6562 54.1406 36.5625 66.7969 67.0312s12.4219 63.9844 -0.234375 94.4531c-26.25 62.8125 -98.6719 92.8125 -161.719 66.5625c-27.9971 -11.7051 -50.6367 -33.2393 -63.75 -60.4688zM772.266 646.25
c-80.625 0 -146.25 -65.625 -146.25 -146.016s65.625 -146.016 146.25 -146.016s146.25 65.625 146.25 146.016s-65.3906 146.016 -146.25 146.016zM772.5 609.688c60.7031 0 109.922 -49.2188 109.922 -109.688c0 -60.7031 -49.2188 -109.688 -109.922 -109.688
s-109.922 49.2188 -109.922 109.688c0.234375 60.4688 49.4531 109.688 109.922 109.688z" />
</svg>
